<svg width="16" height="16" viewBox="0 0 16 16" fill="none" xmlns="http://www.w3.org/2000/svg">
<rect width="18" height="18" transform="translate(-1 -1)" fill="#2786A2"/>
<path fill-rule="evenodd" clip-rule="evenodd" d="M11.1465 12.8V10.8416H12.2L10.4 8.79999L8.6 10.8416H9.65348V12.8H11.1465Z" fill="white"/>
<path fill-rule="evenodd" clip-rule="evenodd" d="M4.85348 8.79999V10.8563H3.8L5.6 13L7.4 10.8563H6.34652V8.79999H4.85348Z" fill="white"/>
<path d="M7.97979 3.14342L7.89143 3L6.10195 3.31053L6.03245 3.69136L6.16373 3.66418C6.2825 3.63959 6.38186 3.62743 6.46117 3.62743C6.59805 3.62743 6.70878 3.68591 6.80037 3.80828L6.81237 3.82463C6.96147 4.03596 7.1713 4.62603 7.43427 5.58209L7.49004 5.78779L7.33634 5.99478C7.19495 6.1827 7.09261 6.31202 7.03006 6.38192C6.89089 6.53462 6.77717 6.63278 6.69352 6.675C6.63207 6.70735 6.56344 6.72333 6.48507 6.72333C6.43228 6.72333 6.32759 6.68811 6.17973 6.61647C6.05966 6.55943 5.94992 6.53038 5.84946 6.53038C5.66378 6.53038 5.50701 6.59255 5.3845 6.71621C5.2618 6.84006 5.2 6.99884 5.2 7.1869C5.2 7.3654 5.25787 7.51479 5.37308 7.62918C5.48815 7.74341 5.64231 7.8 5.83035 7.8C6.00289 7.8 6.16581 7.76326 6.31814 7.68988C6.46996 7.61674 6.65342 7.46675 6.87212 7.23936L6.9049 7.20494C7.07038 7.02945 7.27991 6.78268 7.53384 6.46432L7.65063 6.31664L7.67345 6.38624C7.7872 6.72973 7.88821 6.98869 7.97712 7.16409C8.08881 7.38445 8.2187 7.54595 8.36822 7.64716C8.51941 7.7495 8.70639 7.8 8.92712 7.8C9.14434 7.8 9.36262 7.72131 9.58086 7.56643C9.84429 7.38283 10.1104 7.07744 10.3805 6.65089L10.4781 6.49432L10.1537 6.30335L10.106 6.37081C9.92044 6.633 9.78313 6.79651 9.70127 6.85635C9.65819 6.88606 9.60418 6.90181 9.53883 6.90181C9.47227 6.90181 9.39868 6.85432 9.31862 6.74927L9.305 6.73069C9.16257 6.52841 8.96883 6.00765 8.73082 5.17915L8.69476 5.05237L8.74559 4.96418C8.95165 4.61166 9.12603 4.37911 9.26464 4.26879C9.37042 4.1845 9.47854 4.14357 9.5914 4.14357C9.6278 4.14357 9.70089 4.15759 9.80606 4.18583L9.8423 4.19577C9.98183 4.23479 10.1067 4.25452 10.2174 4.25452C10.3817 4.25452 10.5221 4.19569 10.6333 4.07966C10.7443 3.96376 10.8 3.81428 10.8 3.63659C10.8 3.44939 10.7445 3.29564 10.6328 3.18092C10.5204 3.06556 10.3626 3.00902 10.1649 3.00902C9.99388 3.00902 9.83191 3.05056 9.68024 3.13326C9.53978 3.20985 9.37089 3.36286 9.17006 3.59319L9.10165 3.67324L9.0485 3.73853C8.92842 3.88902 8.77641 4.09832 8.59214 4.36677L8.52767 4.46106L8.52395 4.44599C8.40264 3.97956 8.22124 3.54528 7.97979 3.14342Z" fill="white"/>
</svg>
