<svg width="16" height="16" viewBox="0 0 16 16" fill="none" xmlns="http://www.w3.org/2000/svg">
<path fill-rule="evenodd" clip-rule="evenodd" d="M14.4243 0.909073C14.1899 0.674759 13.8101 0.674759 13.5757 0.909073L12.9091 1.57574C12.6748 1.81005 12.6748 2.18995 12.9091 2.42427C13.1434 2.65858 13.5233 2.65858 13.7576 2.42427L14.4243 1.7576C14.6586 1.52329 14.6586 1.14339 14.4243 0.909073Z" fill="#737373"/>
<path fill-rule="evenodd" clip-rule="evenodd" d="M1.57574 0.909073C1.81005 0.674759 2.18995 0.674759 2.42426 0.909073L3.09093 1.57574C3.32524 1.81005 3.32524 2.18995 3.09093 2.42427C2.85662 2.65858 2.47672 2.65858 2.2424 2.42427L1.57574 1.7576C1.34142 1.52329 1.34142 1.14339 1.57574 0.909073Z" fill="#737373"/>
<path fill-rule="evenodd" clip-rule="evenodd" d="M14.4243 11.0909C14.1899 11.3252 13.8101 11.3252 13.5757 11.0909L12.9091 10.4243C12.6748 10.19 12.6748 9.81005 12.9091 9.57574C13.1434 9.34142 13.5233 9.34142 13.7576 9.57574L14.4243 10.2424C14.6586 10.4767 14.6586 10.8566 14.4243 11.0909Z" fill="#737373"/>
<path fill-rule="evenodd" clip-rule="evenodd" d="M1.57574 11.0909C1.81005 11.3252 2.18995 11.3252 2.42426 11.0909L3.09093 10.4243C3.32524 10.19 3.32524 9.81005 3.09093 9.57574C2.85662 9.34142 2.47672 9.34142 2.2424 9.57574L1.57574 10.2424C1.34142 10.4767 1.34142 10.8566 1.57574 11.0909Z" fill="#737373"/>
<path fill-rule="evenodd" clip-rule="evenodd" d="M5.4 12C5.4 11.6686 5.66863 11.4 6 11.4H10C10.3314 11.4 10.6 11.6686 10.6 12C10.6 12.3314 10.3314 12.6 10 12.6H6C5.66863 12.6 5.4 12.3314 5.4 12Z" fill="#737373"/>
<path fill-rule="evenodd" clip-rule="evenodd" d="M6.06667 14C6.06667 13.6686 6.3353 13.4 6.66667 13.4H9.33333C9.6647 13.4 9.93333 13.6686 9.93333 14C9.93333 14.3314 9.6647 14.6 9.33333 14.6H6.66667C6.3353 14.6 6.06667 14.3314 6.06667 14Z" fill="#737373"/>
<path fill-rule="evenodd" clip-rule="evenodd" d="M5.38003 3.35834C4.86731 3.80113 4.5861 4.45145 4.59982 5.3239C4.61281 6.14895 4.86005 6.67838 5.42413 7.24237C5.4348 7.25304 5.44548 7.26371 5.45616 7.27438C5.76423 7.58215 6.07587 7.89348 6.28663 8.31501C6.44349 8.62872 6.53379 8.97699 6.57417 9.4H9.4257C9.46613 8.97697 9.55647 8.62871 9.71332 8.31501C9.92404 7.89357 10.2356 7.58227 10.5435 7.27454C10.5542 7.26384 10.5649 7.25314 10.5756 7.24244C11.1396 6.67836 11.387 6.14887 11.4 5.3239C11.4137 4.45145 11.1325 3.80113 10.6198 3.35834C10.0934 2.90375 9.24402 2.6 7.9999 2.6C6.75578 2.6 5.90641 2.90375 5.38003 3.35834ZM4.5957 2.45014C5.41062 1.74635 6.57725 1.4 7.9999 1.4C9.42255 1.4 10.5892 1.74635 11.4041 2.45015C12.2327 3.16573 12.6181 4.18208 12.5998 5.34278C12.5816 6.50032 12.1933 7.32165 11.4242 8.0909C11.0759 8.43926 10.9019 8.6211 10.7866 8.85166C10.6786 9.06772 10.5999 9.37913 10.5999 10C10.5999 10.3314 10.3313 10.6 9.9999 10.6H5.9999C5.84076 10.6 5.68814 10.5368 5.57562 10.4243C5.4631 10.3117 5.39989 10.1591 5.3999 9.99996C5.39995 9.37904 5.32132 9.06767 5.21332 8.85166C5.09806 8.62114 4.92407 8.43932 4.57567 8.09097C3.80621 7.32163 3.41818 6.50024 3.39997 5.34278C3.38171 4.18208 3.76711 3.16573 4.5957 2.45014Z" fill="#737373"/>
</svg>
